<?xml version="1.0" encoding="UTF-8" standalone="no"?>
<svg
   xmlns:dc="http://purl.org/dc/elements/1.1/"
   xmlns:cc="http://creativecommons.org/ns#"
   xmlns:rdf="http://www.w3.org/1999/02/22-rdf-syntax-ns#"
   xmlns:svg="http://www.w3.org/2000/svg"
   xmlns="http://www.w3.org/2000/svg"
   version="1.1"
   id="svg2"
   viewBox="0 0 87.451098 102.30469"
   height="28.872658mm"
   width="24.680643mm">
  <defs
     id="defs4" />
  <metadata
     id="metadata7">
    <rdf:RDF>
      <cc:Work
         rdf:about="">
        <dc:format>image/svg+xml</dc:format>
        <dc:type
           rdf:resource="http://purl.org/dc/dcmitype/StillImage" />
        <dc:title></dc:title>
      </cc:Work>
    </rdf:RDF>
  </metadata>
  <g
     transform="translate(1093.7695,-602.89233)"
     id="layer1">
    <path
       id="path4145"
       style="font-style:italic;font-variant:normal;font-weight:bold;font-stretch:normal;font-size:180px;line-height:0%;font-family:Nobile;-inkscape-font-specification:'Nobile Bold Italic';letter-spacing:0px;word-spacing:0px;fill:#0392cf;fill-opacity:1;stroke:none;stroke-width:1px;stroke-linecap:butt;stroke-linejoin:miter;stroke-opacity:1"
       d="m -1063.0957,646.39819 q 8.4375,-0.17578 14.2383,-0.61523 5.8886,-0.52734 9.6679,-1.23047 3.8672,-0.70312 5.8887,-1.49414 2.1094,-0.87891 3.0762,-1.66992 0.9668,-0.87891 1.1426,-1.66992 0.1757,-0.79102 0.1757,-1.40625 0,-16.78711 -13.4472,-16.69922 -4.2188,0 -7.7344,1.8457 -3.4277,1.8457 -6.0644,5.18555 -2.6368,3.25195 -4.3946,7.82226 -1.7578,4.57032 -2.5488,9.93164 z m 46.4941,50.53711 q -16.5234,8.26172 -33.5742,8.26172 -10.0195,0 -18.1055,-2.54883 -8.0859,-2.63672 -13.7988,-7.55859 -5.625,-5.00977 -8.7012,-12.2168 -2.9882,-7.29492 -2.9882,-16.69922 0,-13.71093 4.0429,-25.3125 4.043,-11.60156 11.3379,-20.03906 7.3828,-8.4375 17.5782,-13.18359 10.1953,-4.7461 22.5878,-4.7461 8.4375,0 14.502,2.8125 6.0645,2.72461 9.9316,7.47071 3.8672,4.74609 5.625,11.16211 1.8457,6.32812 1.8457,13.62304 0,0.87891 -0.3515,2.8125 -0.2637,1.9336 -1.9336,4.39453 -1.6699,2.46094 -5.1856,5.09766 -3.5156,2.63672 -10.1074,4.92188 -6.5039,2.19726 -16.5234,3.6914 -10.0196,1.49414 -24.6094,1.58203 -0.1758,1.31836 -0.2637,2.54883 -0.088,1.23047 -0.088,2.46094 0,9.75586 5.1856,15.29297 5.2734,5.53711 14.9414,5.53711 7.2949,0 13.623,-2.10938 6.3282,-2.10937 12.1289,-6.06445 l 2.9004,18.80859 z" />
  </g>
</svg>
