<?xml version="1.0" encoding="UTF-8" standalone="no"?>
<!-- Created with Inkscape (http://www.inkscape.org/) -->

<svg
   xmlns:dc="http://purl.org/dc/elements/1.1/"
   xmlns:cc="http://creativecommons.org/ns#"
   xmlns:rdf="http://www.w3.org/1999/02/22-rdf-syntax-ns#"
   xmlns:svg="http://www.w3.org/2000/svg"
   xmlns="http://www.w3.org/2000/svg"
   xmlns:sodipodi="http://sodipodi.sourceforge.net/DTD/sodipodi-0.dtd"
   xmlns:inkscape="http://www.inkscape.org/namespaces/inkscape"
   width="179.68515mm"
   height="53.579243mm"
   viewBox="0 0 636.67967 189.84771"
   id="svg2"
   version="1.1"
   inkscape:version="0.91 r13725"
   sodipodi:docname="logo.svg">
  <sodipodi:namedview
     id="base"
     pagecolor="#ffffff"
     bordercolor="#666666"
     borderopacity="1.0"
     inkscape:pageopacity="0.0"
     inkscape:pageshadow="2"
     inkscape:zoom="0.49497475"
     inkscape:cx="610.60621"
     inkscape:cy="349.0132"
     inkscape:document-units="px"
     inkscape:current-layer="layer1"
     showgrid="false"
     inkscape:window-width="1920"
     inkscape:window-height="1022"
     inkscape:window-x="0"
     inkscape:window-y="27"
     inkscape:window-maximized="1"
     fit-margin-top="0"
     fit-margin-left="0"
     fit-margin-right="0"
     fit-margin-bottom="0" />
  <defs
     id="defs4" />
  <metadata
     id="metadata7">
    <rdf:RDF>
      <cc:Work
         rdf:about="">
        <dc:format>image/svg+xml</dc:format>
        <dc:type
           rdf:resource="http://purl.org/dc/dcmitype/StillImage" />
        <dc:title></dc:title>
      </cc:Work>
    </rdf:RDF>
  </metadata>
  <g
     id="layer1"
     inkscape:groupmode="layer"
     inkscape:label="Layer 1"
     transform="translate(1309.541,-549.97821)">
    <path
       d="m -1212.2461,591.9939 q -0.1758,-0.0879 -1.8457,-0.70313 -1.6699,-0.61523 -4.3945,-1.40625 -2.6367,-0.8789 -6.0645,-1.75781 -3.4277,-0.9668 -7.207,-1.66992 -3.6914,-0.79102 -7.4707,-1.31836 -3.7793,-0.52735 -7.1192,-0.52735 -5.0097,0 -10.0195,0.43946 -4.9219,0.35156 -8.9648,1.75781 -3.9551,1.40625 -6.5039,4.13086 -2.461,2.72461 -2.461,7.29492 0,3.69141 1.6699,6.24024 1.67,2.54882 4.3946,4.39453 2.7246,1.8457 6.1523,3.33984 3.5156,1.40625 7.1192,2.98828 l 16.9629,7.64649 q 6.8554,3.16406 11.5136,7.11914 4.6582,3.86718 7.4707,8.52539 2.8125,4.6582 4.043,10.10742 1.2305,5.36133 1.2305,11.42578 0,9.66797 -3.6036,18.28125 -3.6035,8.52539 -10.4589,14.94141 -6.7676,6.41601 -16.6114,10.19531 -9.7558,3.69141 -22.1484,3.69141 -5.0098,0 -10.1074,-0.43946 -5.0977,-0.43945 -9.8438,-1.14258 -4.7461,-0.61523 -8.8769,-1.40625 -4.1309,-0.79101 -7.2071,-1.49414 -3.0761,-0.79101 -4.9218,-1.23047 -1.8457,-0.52734 -2.0215,-0.70312 l 4.4824,-25.04883 q 0.2637,0.17578 2.0215,0.87891 1.7578,0.61523 4.5703,1.49414 2.8125,0.79101 6.416,1.75781 3.6035,0.9668 7.4707,1.75781 3.9551,0.79102 7.9102,1.31836 4.0429,0.52735 7.7344,0.52735 27.9492,0 27.9492,-20.83008 0,-9.4043 -10.1953,-14.15039 l -21.8848,-10.3711 q -2.7246,-1.31836 -5.4492,-2.63671 -2.7246,-1.31836 -5.4492,-2.72461 -3.9551,-1.9336 -7.2071,-4.92188 -3.164,-2.98828 -5.4492,-6.67969 -2.1973,-3.6914 -3.4277,-7.99804 -1.2305,-4.39453 -1.2305,-9.22852 0,-9.75586 3.7793,-17.66601 3.7793,-7.99805 10.5469,-13.62305 6.8554,-5.71289 16.3476,-8.78906 9.5801,-3.16407 21.0938,-3.16407 7.7344,0 14.9414,0.9668 7.2949,0.87891 12.9199,2.02148 5.7129,1.05469 9.2285,2.10938 3.5156,1.05469 3.9551,1.31836 l -3.7793,24.96094 z"
       style="font-style:italic;font-variant:normal;font-weight:bold;font-stretch:normal;font-size:180px;line-height:0%;font-family:Nobile;-inkscape-font-specification:'Nobile Bold Italic';letter-spacing:0px;word-spacing:0px;fill:#4d4d4d;fill-opacity:1;stroke:none;stroke-width:1px;stroke-linecap:butt;stroke-linejoin:miter;stroke-opacity:1"
       id="path4141"
       inkscape:connector-curvature="0" />
    <path
       d="m -1105.2832,641.56421 q -0.088,12.74414 -3.4277,24.3457 -3.252,11.51367 -9.4043,20.30274 -6.0645,8.70117 -14.8536,13.88672 -8.789,5.18554 -19.9511,5.18554 -7.1192,0 -12.1289,-3.07617 -4.9219,-3.07617 -7.5586,-8.96484 l -6.9434,46.31836 -26.8066,0.26367 19.9511,-135.08789 20.3028,0 3.0762,13.00781 q 2.4609,-3.42773 5.5371,-6.06445 3.164,-2.72461 6.5918,-4.57032 3.5156,-1.93359 7.207,-2.90039 3.6914,-0.96679 7.3828,-0.96679 7.7344,0 13.5352,2.63672 5.8886,2.54882 9.7558,7.4707 3.9551,4.92187 5.8887,12.04101 1.9336,7.11914 1.8457,16.17188 z m -27.5977,10.89844 q 0.7911,-6.32813 0.7911,-10.89844 -0.3516,-18.19336 -12.5684,-18.19336 -10.9863,0 -18.7207,7.20703 l -6.8555,46.05469 q 3.1641,4.21875 7.7344,6.41601 4.5703,2.19727 10.0195,2.19727 5.0098,0 8.4375,-3.16406 3.4278,-3.16407 5.7129,-7.99805 2.2852,-4.92187 3.5156,-10.63477 1.3184,-5.80078 1.9336,-10.98632 z"
       style="font-style:italic;font-variant:normal;font-weight:bold;font-stretch:normal;font-size:180px;line-height:0%;font-family:Nobile;-inkscape-font-specification:'Nobile Bold Italic';letter-spacing:0px;word-spacing:0px;fill:#4d4d4d;fill-opacity:1;stroke:none;stroke-width:1px;stroke-linecap:butt;stroke-linejoin:miter;stroke-opacity:1"
       id="path4143"
       inkscape:connector-curvature="0" />
    <path
       d="m -997.5293,664.76733 q 0.26368,-13.97461 4.83399,-25.3125 4.57031,-11.33789 11.95312,-19.42382 7.38282,-8.08594 16.78711,-12.48047 9.49219,-4.39453 19.59961,-4.39453 5.09766,0 9.14063,0.61523 4.04297,0.52734 7.4707,1.66992 3.51562,1.05469 6.5918,2.8125 3.16406,1.66992 6.5039,3.86719 l -8.17383,18.80859 q -0.8789,-1.14257 -2.98828,-2.46093 -2.10937,-1.31836 -4.92187,-2.46094 -2.8125,-1.14258 -6.06445,-1.9336 -3.16407,-0.79101 -6.15235,-0.79101 -5.97656,0 -10.37109,1.8457 -4.39453,1.75781 -7.64649,5.44922 -3.16406,3.69141 -5.27343,9.4043 -2.10938,5.625 -3.33985,13.27148 -0.52734,2.46094 -0.79101,4.92188 -0.17578,2.46093 -0.17578,4.83398 -0.52735,22.06055 18.98437,22.06055 2.02148,0 4.30664,-0.43945 2.28516,-0.43946 4.30664,-1.05469 2.10938,-0.61524 3.7793,-1.31836 1.75781,-0.70313 2.63672,-1.23047 1.49414,-0.87891 2.98828,-1.8457 1.49414,-0.9668 2.98828,-1.9336 l 1.75781,18.8086 q -4.04297,2.28515 -7.73437,3.95507 -3.69141,1.66993 -7.5586,2.8125 -3.77929,1.14258 -8.08593,1.75782 -4.21875,0.61523 -9.31641,0.70312 -8.17383,-0.0879 -14.94141,-2.72461 -6.67968,-2.72461 -11.51367,-7.82226 -4.74609,-5.18555 -7.29492,-12.65625 -2.54883,-7.5586 -2.28516,-17.31446 z"
       style="font-style:italic;font-variant:normal;font-weight:bold;font-stretch:normal;font-size:180px;line-height:0%;font-family:Nobile;-inkscape-font-specification:'Nobile Bold Italic';letter-spacing:0px;word-spacing:0px;fill:#4d4d4d;fill-opacity:1;stroke:none;stroke-width:1px;stroke-linecap:butt;stroke-linejoin:miter;stroke-opacity:1"
       id="path4147"
       inkscape:connector-curvature="0" />
    <path
       d="m -873.7793,687.35522 q 2.63672,0 5.18555,-0.61523 2.63672,-0.70312 4.6582,-1.49414 2.10938,-0.87891 3.42774,-1.49414 l 1.23047,-0.70313 4.57031,14.67774 q -0.17578,0.0879 -2.46094,1.31836 -2.28515,1.14258 -6.15234,2.54883 -3.7793,1.31836 -8.87696,2.46093 -5.09765,1.14258 -10.89843,1.14258 -10.01953,0 -16.34766,-5.00976 -6.32812,-5.00977 -8.08594,-15.64454 -0.35156,-1.93359 -0.52734,-4.13085 -0.0879,-2.19727 -0.0879,-4.7461 0,-2.72461 0.26367,-5.625 0.35156,-2.90039 0.79102,-5.97656 l 6.76757,-45.9668 -10.98632,0 1.93359,-13.35937 11.77734,0 4.92188,-35.06836 27.1582,-7.20703 -6.32812,42.27539 22.85156,0 -2.02148,13.35937 -22.67579,0 -7.82226,53.78906 q -0.61524,4.21875 -0.35156,7.20704 0.35156,2.90039 1.40625,4.74609 1.05468,1.8457 2.72461,2.72461 1.75781,0.79101 3.95507,0.79101 z"
       style="font-style:italic;font-variant:normal;font-weight:bold;font-stretch:normal;font-size:180px;line-height:0%;font-family:Nobile;-inkscape-font-specification:'Nobile Bold Italic';letter-spacing:0px;word-spacing:0px;fill:#f37736;fill-opacity:1;stroke:none;stroke-width:1px;stroke-linecap:butt;stroke-linejoin:miter;stroke-opacity:1"
       id="path4149"
       inkscape:connector-curvature="0" />
    <path
       d="m -811.46484,618.36108 q 2.72461,-3.86718 5.44922,-6.5039 2.7246,-2.72461 5.36132,-4.39453 2.72461,-1.75782 5.36133,-2.63672 2.63672,-0.87891 5.18555,-1.23047 2.46094,-0.26367 4.74609,-0.26367 2.37305,0 4.57031,-0.0879 l -3.60351,23.46679 q -1.75781,-0.61523 -3.86719,-0.96679 -2.10937,-0.43946 -4.21875,-0.43946 -5.18555,0.0879 -10.19531,2.28516 -4.92188,2.10937 -9.58008,5.53711 l -10.19531,70.66406 -26.63086,0 14.23828,-99.05273 20.21484,0 3.16407,13.62304 z"
       style="font-style:italic;font-variant:normal;font-weight:bold;font-stretch:normal;font-size:180px;line-height:0%;font-family:Nobile;-inkscape-font-specification:'Nobile Bold Italic';letter-spacing:0px;word-spacing:0px;fill:#f37736;fill-opacity:1;stroke:none;stroke-width:1px;stroke-linecap:butt;stroke-linejoin:miter;stroke-opacity:1"
       id="path4151"
       inkscape:connector-curvature="0" />
    <g
       id="g4204"
       style="fill:#0392cf;fill-opacity:1">
      <path
         inkscape:connector-curvature="0"
         id="path4145"
         style="font-style:italic;font-variant:normal;font-weight:bold;font-stretch:normal;font-size:180px;line-height:0%;font-family:Nobile;-inkscape-font-specification:'Nobile Bold Italic';letter-spacing:0px;word-spacing:0px;fill:#0392cf;fill-opacity:1;stroke:none;stroke-width:1px;stroke-linecap:butt;stroke-linejoin:miter;stroke-opacity:1"
         d="m -1063.0957,646.39819 q 8.4375,-0.17578 14.2383,-0.61523 5.8886,-0.52734 9.6679,-1.23047 3.8672,-0.70312 5.8887,-1.49414 2.1094,-0.87891 3.0762,-1.66992 0.9668,-0.87891 1.1426,-1.66992 0.1757,-0.79102 0.1757,-1.40625 0,-16.78711 -13.4472,-16.69922 -4.2188,0 -7.7344,1.8457 -3.4277,1.8457 -6.0644,5.18555 -2.6368,3.25195 -4.3946,7.82226 -1.7578,4.57032 -2.5488,9.93164 z m 46.4941,50.53711 q -16.5234,8.26172 -33.5742,8.26172 -10.0195,0 -18.1055,-2.54883 -8.0859,-2.63672 -13.7988,-7.55859 -5.625,-5.00977 -8.7012,-12.2168 -2.9882,-7.29492 -2.9882,-16.69922 0,-13.71093 4.0429,-25.3125 4.043,-11.60156 11.3379,-20.03906 7.3828,-8.4375 17.5782,-13.18359 10.1953,-4.7461 22.5878,-4.7461 8.4375,0 14.502,2.8125 6.0645,2.72461 9.9316,7.47071 3.8672,4.74609 5.625,11.16211 1.8457,6.32812 1.8457,13.62304 0,0.87891 -0.3515,2.8125 -0.2637,1.9336 -1.9336,4.39453 -1.6699,2.46094 -5.1856,5.09766 -3.5156,2.63672 -10.1074,4.92188 -6.5039,2.19726 -16.5234,3.6914 -10.0196,1.49414 -24.6094,1.58203 -0.1758,1.31836 -0.2637,2.54883 -0.088,1.23047 -0.088,2.46094 0,9.75586 5.1856,15.29297 5.2734,5.53711 14.9414,5.53711 7.2949,0 13.623,-2.10938 6.3282,-2.10937 12.1289,-6.06445 l 2.9004,18.80859 z" />
      <path
         style="font-style:normal;font-variant:normal;font-weight:normal;font-stretch:normal;letter-spacing:normal;word-spacing:normal;text-anchor:start;fill:#0392cf;fill-opacity:1;fill-rule:evenodd;stroke:#000000;stroke-width:0;stroke-linecap:butt;stroke-linejoin:miter;stroke-miterlimit:10.43299961;stroke-dasharray:none;stroke-dashoffset:0;stroke-opacity:1"
         inkscape:connector-curvature="0"
         d="m -1009.556,579.32107 -0.3458,0.2964 -0.3458,0.34579 -0.3458,0.34579 -0.4446,0.34579 -0.3951,0.39519 -0.4446,0.39519 -0.4446,0.44459 -0.4446,0.39519 -0.494,0.44459 -0.494,0.49399 -0.9386,0.93857 -0.9879,0.93858 -0.9386,1.03737 -0.4446,0.49399 -0.4446,0.49399 -0.4446,0.49398 -0.3952,0.54339 -0.3952,0.49399 -0.3951,0.49398 -0.3459,0.49399 -0.2963,0.49399 -0.2964,0.49399 -0.247,0.49398 -0.247,0.49399 -0.1976,0.44459 -0.1482,0.44459 -0.099,0.49399 -0.099,0.39518 0,0.44459 c 0,2.46994 2.4699,4.93988 4.9399,4.93988 2.2229,0 3.4579,-1.77836 4.6928,-3.26032 2.9146,-3.7049 8.5954,-10.57133 19.46319,-15.95579 1.6795,-1.03738 4.1495,-2.27234 4.1495,-5.18687 0,-2.46994 -1.6796,-3.7049 -3.458,-4.93987 -5.3844,-3.70491 -8.1014,-8.1014 -10.12669,-13.97985 -0.4446,-2.22294 -1.4326,-5.48326 -4.8411,-5.48326 -3.5073,0 -4.9399,3.26032 -4.9399,5.18687 0,1.23497 1.9266,9.08937 5.8785,14.27624 l -82.9405,0 c -4.1495,0 -8.6448,0 -8.6448,4.93987 0,4.93987 4.4953,4.93987 8.6448,4.93987 z"
         id="path4177" />
    </g>
    <path
       inkscape:connector-curvature="0"
       id="path4272"
       style="font-style:italic;font-variant:normal;font-weight:bold;font-stretch:normal;font-size:180px;line-height:0%;font-family:Nobile;-inkscape-font-specification:'Nobile Bold Italic';letter-spacing:0px;word-spacing:0px;fill:#7bc043;fill-opacity:1;stroke:none;stroke-width:1px;stroke-linecap:butt;stroke-linejoin:miter;stroke-opacity:1"
       d="m -716.10352,598.76147 -8.61328,20.91797 -15.38086,35.41993 31.55274,0 -4.57031,-31.20118 -2.98829,-25.13672 z m -9.22851,-36.12304 27.68555,0 24.78515,141.15234 -27.77344,0 -5.18554,-34.89258 -39.46289,0 -15.55664,34.89258 -29.0918,0 64.59961,-141.15234 z" />
  </g>
</svg>
